HIERARCHY
ROOT SpineBase
{
  OFFSET 0.000000 0.000000 0.000000
  CHANNELS 6 Xposition Yposition Zposition Zrotation Xrotation Yrotation
  JOINT SpineMid
  {
    OFFSET 0.000000 26.960693 0.000000
    CHANNELS 3 Zrotation Xrotation Yrotation
    JOINT SpineShoulder
    {
      OFFSET -0.064180 20.113527 -0.491089
      CHANNELS 3 Zrotation Xrotation Yrotation
      JOINT Neck
      {
        OFFSET -0.033135 6.634228 -0.443946
        CHANNELS 3 Zrotation Xrotation Yrotation
        JOINT Head
        {
          OFFSET -2.539607 12.486027 -0.125712
          CHANNELS 3 Zrotation Xrotation Yrotation
          End Site
          {
            OFFSET 0 0 0
          }
        }
      }
      JOINT ShoulderLeft
      {
        OFFSET -14.029383 -3.981643 6.828213
        CHANNELS 3 Zrotation Xrotation Yrotation
        JOINT ElbowLeft
        {
          OFFSET 1.575067 -23.866359 -12.099482
          CHANNELS 3 Zrotation Xrotation Yrotation
          JOINT WristLeft
          {
            OFFSET -0.775814 -24.397453 -0.035610
            CHANNELS 3 Zrotation Xrotation Yrotation
            JOINT HandLeft
            {
              OFFSET -2.334210 -2.102118 -0.938026
              CHANNELS 3 Zrotation Xrotation Yrotation
              JOINT HandTipLeft
              {
                OFFSET -0.784412 -1.908790 1.569588
                CHANNELS 3 Zrotation Xrotation Yrotation
                End Site
                {
                  OFFSET 0 0 0
                }
              }
              JOINT ThumbLeft
              {
                OFFSET -1.349392 -0.351316 0.305888
                CHANNELS 3 Zrotation Xrotation Yrotation
                End Site
                {
                  OFFSET 0 0 0
                }
              }
            }
          }
        }
      }
      JOINT ShoulderRight
      {
        OFFSET 9.815316 -4.629656 -11.086249
        CHANNELS 3 Zrotation Xrotation Yrotation
        JOINT ElbowRight
        {
          OFFSET 3.489086 -24.139038 -3.097535
          CHANNELS 3 Zrotation Xrotation Yrotation
          JOINT WristRight
          {
            OFFSET -1.275171 -19.265752 -3.311945
            CHANNELS 3 Zrotation Xrotation Yrotation
            JOINT HandRight
            {
              OFFSET -2.415092 -4.118527 -2.284505
              CHANNELS 3 Zrotation Xrotation Yrotation
              JOINT HandTipRight
              {
                OFFSET -1.270664 -4.848147 -1.552926
                CHANNELS 3 Zrotation Xrotation Yrotation
                End Site
                {
                  OFFSET 0 0 0
                }
              }
              JOINT ThumbRight
              {
                OFFSET -3.080972 -0.497043 -3.353122
                CHANNELS 3 Zrotation Xrotation Yrotation
                End Site
                {
                  OFFSET 0 0 0
                }
              }
            }
          }
        }
      }
    }
  }
  JOINT HipLeft
  {
    OFFSET -5.100235 0.701295 0.473247
    CHANNELS 3 Zrotation Xrotation Yrotation
    JOINT KneeLeft
    {
      OFFSET -10.669353 -25.182487 -24.387954
      CHANNELS 3 Zrotation Xrotation Yrotation
      JOINT AnkleLeft
      {
        OFFSET 11.926486 -30.308267 22.856313
        CHANNELS 3 Zrotation Xrotation Yrotation
        JOINT FootLeft
        {
          OFFSET -4.930911 -3.683627 -9.796083
          CHANNELS 3 Zrotation Xrotation Yrotation
          End Site
          {
            OFFSET 0 0 0
          }
        }
      }
    }
  }
  JOINT HipRight
  {
    OFFSET 4.829805 0.635526 -6.836416
    CHANNELS 3 Zrotation Xrotation Yrotation
    JOINT KneeRight
    {
      OFFSET 8.212017 -35.927134 6.386390
      CHANNELS 3 Zrotation Xrotation Yrotation
      JOINT AnkleRight
      {
        OFFSET 4.588732 -28.293004 4.194860
        CHANNELS 3 Zrotation Xrotation Yrotation
        JOINT FootRight
        {
          OFFSET -5.389114 -3.384961 -10.676405
          CHANNELS 3 Zrotation Xrotation Yrotation
          End Site
          {
            OFFSET 0 0 0
          }
        }
      }
    }
  }
}
MOTION
Frames: 15
Frame Time: 0.033333
13.106246 76.482591 352.863666 -1.232597 -0.730025 37.897257 -0.247027 0.318641 -37.942505 -0.167982 0.159946 -0.077121 6.776585 6.399754 1.061972 0.000000 0.000000 0.000000 -69.133406 -7.103763 38.001876 -145.013303 19.059634 27.979744 20.506028 33.525956 80.072080 -23.334174 66.995384 24.803996 0.000000 0.000000 0.000000 0.000000 0.000000 0.000000 -53.258471 58.480568 47.753420 -152.623734 33.584821 -133.097056 44.508316 16.309141 59.064624 -0.644174 27.003142 -26.725962 0.000000 0.000000 0.000000 0.000000 0.000000 0.000000 -18.586135 -55.201399 -50.858211 -59.129110 61.359189 41.245202 5.354347 -17.670576 -1.880247 0.000000 0.000000 0.000000 8.869401 9.076048 -35.689155 0.640695 -17.366073 -3.172499 -1.700791 6.117590 -0.163469 0.000000 0.000000 0.000000
13.137387 76.417878 352.845456 -1.395707 -0.491194 37.862226 -0.267739 0.299708 -37.910002 -0.177375 0.115614 -0.085524 7.587657 7.462302 1.246908 0.000000 0.000000 0.000000 -65.871817 -8.215277 35.150082 -146.621647 16.408381 22.169191 26.152657 33.596358 77.830221 -67.794357 64.907447 72.374378 0.000000 0.000000 0.000000 0.000000 0.000000 0.000000 -48.178289 56.811088 42.811965 -154.152356 31.728991 -131.629630 46.473417 15.232451 55.449453 -1.511405 29.078833 -22.950285 0.000000 0.000000 0.000000 0.000000 0.000000 0.000000 -18.351204 -54.698501 -50.071133 -56.531856 61.580458 39.137009 5.085185 -17.569190 -2.067237 0.000000 0.000000 0.000000 8.256654 8.166956 -35.744764 0.869761 -16.140330 -2.875803 -0.383003 2.102272 1.428097 0.000000 0.000000 0.000000
13.159826 76.341073 352.867379 -1.554918 -0.307969 37.816439 -0.329161 0.222601 -37.867981 -0.171311 0.041386 -0.093528 8.830621 8.297182 1.314421 0.000000 0.000000 0.000000 -62.671754 -9.198235 32.629924 -147.995974 14.345935 15.329672 25.703824 34.916945 81.325490 -58.845766 71.463564 62.503692 0.000000 0.000000 0.000000 0.000000 0.000000 0.000000 -43.722667 54.996492 38.492599 -155.705500 30.120809 -129.672845 49.398232 15.174535 47.625650 -7.754277 34.566807 -4.707195 0.000000 0.000000 0.000000 0.000000 0.000000 0.000000 -17.844438 -53.685926 -48.810774 -52.518228 61.746983 35.865647 4.691558 -17.433421 -2.344598 0.000000 0.000000 0.000000 7.278885 6.871185 -35.908711 1.093450 -14.200744 -2.459829 1.019747 -1.730303 2.982136 0.000000 0.000000 0.000000
13.180362 76.244160 352.889830 -1.640784 -0.084407 37.703577 -0.313909 0.174758 -37.753996 -0.102530 0.028205 -0.091173 9.368556 8.095450 1.297926 0.000000 0.000000 0.000000 -60.214197 -10.032436 30.494202 -149.251775 12.478868 10.545144 38.012079 26.111661 68.558593 -95.455714 64.294901 109.085905 0.000000 0.000000 0.000000 0.000000 0.000000 0.000000 -41.333206 53.631762 35.951260 -157.055667 29.110334 -131.927186 48.274998 23.024722 48.562355 -15.043235 27.769080 -2.580796 0.000000 0.000000 0.000000 0.000000 0.000000 0.000000 -17.628973 -53.337179 -48.137451 -50.509854 61.760377 34.216288 4.489156 -17.323174 -2.474916 0.000000 0.000000 0.000000 6.897406 6.069663 -35.853296 0.779907 -13.377761 -2.405258 2.414278 -4.556851 4.350700 0.000000 0.000000 0.000000
13.208168 76.137512 352.921430 -1.658054 0.096398 37.466357 -0.298223 0.116308 -37.514181 -0.034091 0.001573 -0.085790 9.752892 8.003658 1.281921 0.000000 0.000000 0.000000 -58.825875 -10.731973 29.130111 -149.968984 10.719175 9.485594 44.686508 19.987194 61.095697 -110.566406 56.534597 122.580661 0.000000 0.000000 0.000000 0.000000 0.000000 0.000000 -39.322730 52.153863 33.644934 -158.186289 27.870630 -134.764885 44.959348 32.579815 53.215023 -19.103108 24.206000 0.449854 0.000000 0.000000 0.000000 0.000000 0.000000 0.000000 -17.546766 -53.646786 -47.894718 -50.691938 61.780708 34.343888 4.515770 -17.296291 -2.445130 0.000000 0.000000 0.000000 6.867183 5.642301 -35.584662 0.191746 -13.204308 -2.546020 3.538426 -6.243072 5.279192 0.000000 0.000000 0.000000
13.242274 76.030354 352.960679 -1.576297 0.199703 37.146410 -0.270872 0.055320 -37.189934 0.043825 -0.012448 -0.074757 9.867323 7.980252 1.260963 0.000000 0.000000 0.000000 -58.704027 -10.802712 28.834005 -150.875324 11.307154 4.805931 44.794685 20.478158 63.730563 -112.592735 52.649309 123.713702 0.000000 0.000000 0.000000 0.000000 0.000000 0.000000 -36.735860 50.919128 31.078149 -159.367780 26.229649 -134.619387 40.839163 39.476701 58.767184 -22.427080 17.888883 -4.570738 0.000000 0.000000 0.000000 0.000000 0.000000 0.000000 -17.625742 -54.526950 -48.074099 -52.875368 61.860286 36.143021 4.698840 -17.363657 -2.317435 0.000000 0.000000 0.000000 7.258642 5.762944 -35.124942 -0.648097 -13.760683 -2.908552 4.228643 -6.660207 5.602805 0.000000 0.000000 0.000000
13.269058 75.923374 352.997354 -1.417534 0.221435 36.703331 -0.229497 -0.026858 -36.741448 0.124222 -0.049639 -0.059784 9.501961 8.018743 1.232833 0.000000 0.000000 0.000000 -56.785841 -10.967131 27.456605 -152.913123 10.972977 -3.222122 41.159276 26.368833 72.444722 -108.264397 46.400612 122.603480 0.000000 0.000000 0.000000 0.000000 0.000000 0.000000 -35.646947 49.123640 29.227469 -159.999632 25.118855 -136.220105 34.002108 46.371286 69.142702 -23.007087 12.488880 -14.939292 0.000000 0.000000 0.000000 0.000000 0.000000 0.000000 -17.745979 -55.904942 -48.563820 -56.929381 61.879425 39.500193 5.053523 -17.547867 -2.086390 0.000000 0.000000 0.000000 7.839508 6.251749 -34.502283 -1.661973 -14.825782 -3.441531 4.448613 -5.661084 5.227702 0.000000 0.000000 0.000000
13.295734 75.836418 353.037130 -1.254432 0.235316 36.261465 -0.185762 -0.087158 -36.294058 0.224402 -0.120925 -0.044068 8.833448 8.138745 1.226778 0.000000 0.000000 0.000000 -57.577429 -10.461930 28.015666 -153.760521 11.419717 -2.312009 43.038501 26.010148 71.118891 -110.043107 44.967629 122.527710 0.000000 0.000000 0.000000 0.000000 0.000000 0.000000 -33.587802 47.750052 27.028476 -160.851786 23.434418 -134.262467 29.799603 47.968742 76.037179 -25.523200 7.784923 -24.101412 0.000000 0.000000 0.000000 0.000000 0.000000 0.000000 -17.786026 -57.162818 -48.988799 -60.716350 61.747870 42.641873 5.384996 -17.735291 -1.874975 0.000000 0.000000 0.000000 8.405004 6.892865 -33.888830 -2.360384 -15.865339 -3.890086 3.916365 -3.647871 4.189441 0.000000 0.000000 0.000000
13.324577 75.771775 353.073269 -1.093667 0.209115 35.829373 -0.167075 -0.143637 -35.857701 0.295210 -0.211823 -0.031566 8.153596 8.317805 1.218827 0.000000 0.000000 0.000000 -57.528367 -10.255558 28.014746 -154.135859 10.959337 -1.166054 38.637808 29.252125 75.489271 -107.735447 47.049284 116.894373 0.000000 0.000000 0.000000 0.000000 0.000000 0.000000 -32.072746 47.018546 25.573879 -161.212000 21.614576 -132.067595 21.529557 47.727801 88.994860 -28.323696 -0.087707 -49.518322 0.000000 0.000000 0.000000 0.000000 0.000000 0.000000 -17.420323 -57.666375 -48.684256 -62.084098 61.581464 43.748359 5.496918 -17.719317 -1.779729 0.000000 0.000000 0.000000 8.670639 7.194026 -33.376121 -2.892812 -16.233444 -4.146169 1.843036 2.293971 0.569065 0.000000 0.000000 0.000000
13.350061 75.745479 353.105497 -1.011566 0.137358 35.447772 -0.208436 -0.213701 -35.475928 0.322382 -0.307797 -0.027607 8.062040 8.868851 1.220174 0.000000 0.000000 0.000000 -57.595918 -10.047361 28.255746 -153.008509 9.952398 4.206404 34.361305 30.686318 76.312500 -100.289789 60.868508 106.801779 0.000000 0.000000 0.000000 0.000000 0.000000 0.000000 -29.168948 45.985637 23.307028 -161.830195 19.487642 -124.381887 19.396580 43.989267 94.411639 -31.406752 -4.790212 -72.063030 0.000000 0.000000 0.000000 0.000000 0.000000 0.000000 -17.017577 -58.088982 -48.363226 -63.448530 61.538196 44.898532 5.616596 -17.839500 -1.719155 0.000000 0.000000 0.000000 8.576307 7.137017 -33.021907 -3.056336 -15.980425 -4.140274 1.969463 1.676785 1.424007 0.000000 0.000000 0.000000
13.386925 75.752247 353.144878 -0.987697 0.022089 35.219934 -0.271321 -0.233597 -35.250583 0.292197 -0.361505 -0.031803 8.418268 9.411601 1.214526 0.000000 0.000000 0.000000 -57.087961 -10.453024 27.930774 -151.590093 8.495467 8.200120 36.002316 28.636514 70.984500 -96.300833 66.963477 104.574962 0.000000 0.000000 0.000000 0.000000 0.000000 0.000000 -25.269643 44.784914 20.584395 -162.163128 16.988456 -111.634061 19.994757 37.317012 95.036424 -35.698940 -6.112180 -89.670574 0.000000 0.000000 0.000000 0.000000 0.000000 0.000000 -16.685098 -58.245141 -48.063525 -64.400067 61.590080 45.686488 5.874533 -17.634932 -2.366204 0.000000 0.000000 0.000000 8.237785 6.764360 -32.903470 -3.038203 -15.055673 -3.934686 1.450879 2.537495 1.318711 0.000000 0.000000 0.000000
13.444100 75.832951 353.176051 -1.048948 -0.064137 35.157335 -0.383012 -0.267013 -35.193849 0.226591 -0.404429 -0.043562 9.453629 9.915680 1.162912 0.000000 0.000000 0.000000 -56.335130 -10.939413 27.520838 -150.210467 6.960957 12.311605 40.509334 26.212487 63.536726 -98.815063 58.565465 114.733536 0.000000 0.000000 0.000000 0.000000 0.000000 0.000000 -20.592200 42.698084 17.336633 -162.139571 14.240469 -93.752383 21.575204 31.228294 90.042451 -40.657232 -5.335703 -96.119694 0.000000 0.000000 0.000000 0.000000 0.000000 0.000000 -16.460563 -58.119003 -47.772588 -64.353463 61.767097 45.684140 5.942696 -17.772132 -2.486524 0.000000 0.000000 0.000000 8.842307 7.146952 -32.724205 -3.476401 -15.702133 -4.224833 3.967653 -3.321459 4.654443 0.000000 0.000000 0.000000
13.509761 75.859109 353.218429 -1.051338 -0.171715 35.014865 -0.517326 -0.317644 -35.056509 0.174345 -0.431566 -0.052037 10.190954 10.440570 1.111792 0.000000 0.000000 0.000000 -55.625765 -12.040383 26.808839 -148.145973 6.051949 11.684417 43.837519 19.859371 57.480481 -96.874279 45.435389 130.003006 0.000000 0.000000 0.000000 0.000000 0.000000 0.000000 -17.661629 38.804747 14.595879 -158.455389 10.833955 -66.752477 29.143496 19.551900 69.803111 -39.349832 -2.513431 -73.065724 0.000000 0.000000 0.000000 0.000000 0.000000 0.000000 -15.986482 -57.610696 -46.941673 -63.285997 62.051476 44.823772 5.986583 -17.880414 -2.729073 0.000000 0.000000 0.000000 8.793456 7.045133 -32.621802 -3.562926 -15.465856 -4.195248 4.771187 -4.969183 5.623025 0.000000 0.000000 0.000000
13.547074 75.707163 353.253767 -1.089002 -0.297027 34.756736 -0.616757 -0.382251 -34.803901 0.137565 -0.427175 -0.058955 10.766271 10.970114 1.073148 0.000000 0.000000 0.000000 -52.609893 -14.768085 23.967886 -145.774312 3.389336 3.047487 33.515155 33.623746 71.935916 -87.170260 30.386467 131.620144 0.000000 0.000000 0.000000 0.000000 0.000000 0.000000 -12.049563 34.727231 10.784528 -153.425839 9.874299 -28.294366 29.315863 13.512306 51.919345 -44.461191 -4.285910 -63.158383 0.000000 0.000000 0.000000 0.000000 0.000000 0.000000 -15.546426 -57.744218 -46.541431 -64.201913 62.080321 45.515792 6.226023 -18.091926 -2.539455 0.000000 0.000000 0.000000 9.329584 7.451121 -32.270038 -3.809997 -16.176216 -4.420730 3.784672 -2.684993 4.493439 0.000000 0.000000 0.000000
13.563298 75.426907 353.284325 -1.120021 -0.457155 34.478918 -0.662331 -0.439054 -34.530351 0.123533 -0.406606 -0.061978 10.862621 11.311279 1.051185 0.000000 0.000000 0.000000 -47.603601 -19.135338 19.380792 -146.480224 0.632932 -35.329726 19.942346 52.143996 103.259256 -75.456797 -1.943191 167.088586 0.000000 0.000000 0.000000 0.000000 0.000000 0.000000 -5.439092 31.111753 7.068430 -146.206505 16.844180 15.477850 23.974979 -8.160511 21.818220 -23.931555 6.455768 -12.493370 0.000000 0.000000 0.000000 0.000000 0.000000 0.000000 -15.130932 -58.049525 -46.276718 -65.765631 62.023295 46.699594 6.379122 -18.692335 -1.356647 0.000000 0.000000 0.000000 8.687958 6.324381 -32.203468 -3.938388 -14.170607 -3.998967 5.188922 -6.135540 6.637499 0.000000 0.000000 0.000000
